<?xml version="1.0" standalone="no"?>
<!DOCTYPE svg PUBLIC "-//W3C//DTD SVG 20010904//EN"
 "http://www.w3.org/TR/2001/REC-SVG-20010904/DTD/svg10.dtd">
<svg version="1.0" xmlns="http://www.w3.org/2000/svg"
 width="534.000000pt" height="534.000000pt" viewBox="0 0 534.000000 534.000000"
 preserveAspectRatio="xMidYMid meet">
<metadata>
Created by potrace 1.14, written by Peter Selinger 2001-2017
</metadata>
<g transform="translate(0.000000,534.000000) scale(0.100000,-0.100000)"
fill="#000000" stroke="none">
<path d="M707 4922 c-47 -19 -69 -43 -170 -182 -50 -69 -150 -203 -221 -299
-255 -339 -272 -366 -255 -425 9 -32 89 -156 160 -247 38 -49 135 -177 260
-344 21 -27 88 -116 151 -197 62 -81 151 -200 198 -264 47 -64 95 -128 108
-143 13 -14 62 -80 110 -146 47 -66 135 -182 194 -258 59 -77 108 -143 108
-147 0 -7 191 -266 398 -540 48 -63 113 -152 145 -197 31 -45 67 -89 78 -97
11 -7 28 -27 37 -44 9 -16 64 -92 122 -169 271 -358 369 -491 417 -561 28 -43
65 -90 81 -105 l29 -28 74 100 c41 55 144 194 229 309 234 316 308 416 389
526 41 56 132 178 201 271 70 94 185 249 257 345 71 96 143 189 160 205 16 17
62 73 101 126 39 54 77 105 86 115 8 11 47 62 85 114 112 152 356 480 486 654
66 89 152 206 192 262 39 55 81 111 92 125 18 21 114 149 220 296 54 73 61 58
-190 394 -85 114 -188 253 -229 309 -102 141 -167 221 -192 238 -17 12 -114
14 -637 13 -376 -1 -631 -6 -653 -12 -22 -5 -43 -19 -49 -32 -7 -12 -15 -24
-19 -27 -3 -3 -38 -48 -77 -100 -244 -331 -525 -700 -534 -700 -5 0 -9 4 -9 8
0 8 -83 126 -143 206 -128 167 -277 369 -363 492 -58 82 -113 143 -143 159
-38 19 -1237 17 -1284 -3z"/>
</g>
</svg>
